<?xml version="1.0" encoding="UTF-8"?>
<svg width="24px" height="24px" viewBox="0 0 24 24" version="1.1" xmlns="http://www.w3.org/2000/svg" xmlns:xlink="http://www.w3.org/1999/xlink">
    <title>ic_camera_sound_mute</title>
    <defs>
        <path d="M5.53033009,3.21966991 L21.0796997,18.7690395 C21.3725929,19.0619327 21.3725929,19.5368064 21.0796997,19.8296997 C20.7868064,20.1225929 20.3119327,20.1225929 20.0190395,19.8296997 L14.75,14.5606602 L14.75,20 C14.75,20.2664264 14.4679002,20.4643516 14.25,20.5 C13.8886788,20.5591119 13.5398154,20.3355077 13.4347231,20.2532615 L8,16 L5,16 C4.02258037,15.9539088 3.25,15.1877165 3.25,14.25 L3.25,9.75 C3.25,8.78418149 3.94725378,8.04440201 4.85499432,8.00099769 L8,8 L8.10518879,7.91584897 L4.46966991,4.28033009 C4.1767767,3.98743687 4.1767767,3.51256313 4.46966991,3.21966991 C4.76256313,2.9267767 5.23743687,2.9267767 5.53033009,3.21966991 Z M9.21966991,9.03033009 L9,9.25 L8.5,9.5 L5,9.5 C4.87891063,9.48386855 4.81869991,9.52911712 4.75,9.5 C4.75526803,9.59231345 4.73668448,9.63351746 4.75,9.75 L4.75,14.25 C4.73668448,14.3479637 4.84620357,14.4374497 5,14.5 L8.5,14.5 L9,14.75 L13.25,18 L13.25,13.0606602 L9.21966991,9.03033009 Z M19.9039421,7.91751901 C20.5515297,9.16896417 20.8943117,10.5606797 20.8943117,12 C20.8943117,13.4339274 20.5540973,14.8206417 19.9111383,16.0685444 L19.8646856,16.1430514 L18.7487772,15.0265322 C19.1719585,14.0846453 19.3943117,13.0589169 19.3943117,12 C19.3943117,10.8020046 19.1097107,9.64650715 18.5717409,8.60689563 C18.3813748,8.23901844 18.525276,7.78647285 18.8931532,7.59610675 C19.2610304,7.40574065 19.713576,7.54964182 19.9039421,7.91751901 Z M14.25,3.5 C14.469373,3.52558058 14.75,3.73324901 14.75,4 L14.75,11.029068 L13.25,9.52906799 L13.25,6 L11.1915436,7.47186279 L10.1915436,6.47186279 L13.4559153,3.74884091 C13.5539435,3.66589394 13.8771295,3.45652043 14.25,3.5 Z" id="path-1"></path>
    </defs>
    <g id="ic_camera_sound_mute" stroke="none" stroke-width="1" fill="none" fill-rule="evenodd">
        <mask id="mask-2" fill="white">
            <use xlink:href="#path-1"></use>
        </mask>
        <use id="sound_mute" fill="#000000" fill-rule="nonzero" xlink:href="#path-1"></use>
    </g>
</svg>