<?xml version="1.0" encoding="UTF-8"?>
<svg width="24px" height="24px" viewBox="0 0 24 24" version="1.1" xmlns="http://www.w3.org/2000/svg" xmlns:xlink="http://www.w3.org/1999/xlink">
    <title>ic_camera_setting_efficient video format</title>
    <defs>
        <path d="M20.5,4 C21.3284271,4 22,4.67157288 22,5.5 L22,18.5 C22,19.3284271 21.3284271,20 20.5,20 L3.5,20 C2.67157288,20 2,19.3284271 2,18.5 L2,5.5 C2,4.67157288 2.67157288,4 3.5,4 L20.5,4 Z M20.5,8.50689352 L3.5,8.50689352 L3.5,18.5 L20.5,18.5 L20.5,8.50689352 Z M12.6055728,10.1066472 C12.8264867,10.1066472 13.0055728,10.2857333 13.0055728,10.5066472 C13.0055728,10.5687452 12.9911148,10.6299905 12.9633437,10.6855326 L12.1492185,12.3074087 L13.3485222,12.3072357 C13.5694361,12.3072357 13.7485222,12.4863218 13.7485222,12.7072357 C13.7485222,12.7841917 13.7263231,12.8595141 13.6845872,12.9241696 L11.1500437,16.8505783 C11.0302344,17.0361818 10.7826484,17.0895186 10.5970448,16.9697093 C10.4448955,16.8714951 10.3777121,16.6833118 10.4332619,16.5109469 L11.2073572,14.1072329 L11.0100378,14.1078079 L10.9281521,14.1062718 L9.9,14.1066472 C9.6790861,14.1066472 9.5,13.9275611 9.5,13.7066472 C9.5,13.6445492 9.51445804,13.5833039 9.54222912,13.5277618 L11.1000707,10.4120785 C11.1595319,10.2931563 11.1883626,10.2540959 11.2273297,10.2160378 C11.2662968,10.1779798 11.3105462,10.1506322 11.362013,10.132799 C11.4134797,10.1149658 11.4613099,10.1066472 11.594269,10.1066472 L12.6055728,10.1066472 Z M7.522,5.5 L3.5,5.5 L3.5,7.50689352 L6.364,7.506 L7.522,5.5 Z M11.923,5.5 L8.677,5.5 L7.519,7.506 L10.765,7.506 L11.923,5.5 Z M16.434,5.5 L13.078,5.5 L11.92,7.506 L15.276,7.506 L16.434,5.5 Z M20.5,5.5 L17.589,5.5 L16.431,7.506 L20.5,7.50689352 L20.5,5.5 Z" id="path-1"></path>
    </defs>
    <g id="ic_camera_setting_efficient-video-format" stroke="none" stroke-width="1" fill="none" fill-rule="evenodd">
        <mask id="mask-2" fill="white">
            <use xlink:href="#path-1"></use>
        </mask>
        <use id="path-1" fill="#000000" xlink:href="#path-1"></use>
    </g>
</svg>