<?xml version="1.0" encoding="UTF-8"?>
<svg width="12px" height="24px" viewBox="0 0 12 24" version="1.1" xmlns="http://www.w3.org/2000/svg" xmlns:xlink="http://www.w3.org/1999/xlink">
    <title>ic_public_arrow_right</title>
    <g id="ic_public_arrow_right" stroke="none" stroke-width="1" fill="none" fill-rule="evenodd">
        <g id="编组" transform="translate(3.000000, 5.000000)" fill="#000000" fill-rule="nonzero">
            <path d="M1.2482689,0.78255501 L1.28033009,0.81281566 L6.23007755,5.7625631 C6.8992572,6.4317428 6.91319844,7.5080354 6.27190128,8.1941781 L6.23007755,8.2374369 L1.28033009,13.1871843 C1.15145707,13.3160574 0.98735263,13.3882262 0.81902041,13.403691 L0.7730301,13.4065028 L0.7269699,13.4065028 C0.54277571,13.4008792 0.36025866,13.3277731 0.21966991,13.1871843 C-0.06276283,12.9047516 -0.07284972,12.4531048 0.18940926,12.1585854 L0.21966991,12.1265242 L4.81586399,7.5303301 C5.09829674,7.2478973 5.10838362,6.7962506 4.84612464,6.5017311 L4.81586399,6.4696699 L0.21966991,1.87347584 C-0.0732233,1.58058262 -0.0732233,1.10570888 0.21966991,0.81281566 C0.36088629,0.67159929 0.54440617,0.59846938 0.72943689,0.59342594 L0.77570243,0.59358355 C0.94528507,0.59936249 1.11328081,0.66235298 1.2482689,0.78255501 Z" id="path-1"></path>
        </g>
    </g>
</svg>