<svg height="24"
     viewBox="0 0 24 24"
     width="24"
     xmlns="http://www.w3.org/2000/svg">
    <path
        d="m17.3906114 13.5088835c.6691797.6691796.6831209 1.7454722.0418237 2.4316149l-.0418237.0432588-5.6997475 5.6997475c-.2928932.2928932-.7677669.2928932-1.0606601 0-.2824328-.2824328-.2925197-.7340795-.0302607-1.028599l.0302607-.0320612 5.346194-5.3461941c.2824328-.2824327.2925197-.7340795.0302607-1.028599l-.0302607-.0320611-10.34619398-10.34619412c-.29289322-.29289322-.29289322-.76776695 0-1.06066017.28243275-.28243275.73407952-.29251963 1.02859898-.03026065l.03206119.03026065z"
        fill="#FFFFFF"
        transform="matrix(0 1 -1 0 23.903174 .589466)"/>
</svg>