<?xml version="1.0" encoding="UTF-8"?>
<svg width="32px" height="32px" viewBox="0 0 24 24" version="1.1" xmlns="http://www.w3.org/2000/svg" xmlns:xlink="http://www.w3.org/1999/xlink">
    <title>ic_camera_mode_video</title>
    <g id="ic_camera_mode_video" stroke="none" stroke-width="1" fill="none" fill-rule="evenodd">
        <path d="M2.65,4.85 C1.738925,4.85 1,5.58865 1,6.5 L1,17.5 C1,18.411075 1.738925,19.15 2.65,19.15 L16.125,19.15 C17.03635,19.15 17.775,18.411075 17.775,17.5 L17.775,15.588475 L21.505925,17.2943 C21.63765,17.3449 21.771025,17.368275 21.9011,17.368275 C22.483275,17.368275 23,16.898025 23,16.26745 L23,7.7254 C23,7.094825 22.483,6.624575 21.9011,6.6243 C21.770475,6.6243 21.63655,6.648225 21.504275,6.6991 L17.775,8.411525 L17.775,6.5 C17.775,5.58865 17.03635,4.85 16.125,4.85 L2.65,4.85 Z" id="Path备份" fill="#000000"></path>
    </g>
</svg>