<?xml version="1.0" encoding="UTF-8"?>
<svg viewBox="0 0 24 24" version="1.1" xmlns="http://www.w3.org/2000/svg" xmlns:xlink="http://www.w3.org/1999/xlink">
    <!-- Generator: Sketch 63.1 (92452) - https://sketch.com -->
    <title>ic/camera/public/flash_on</title>
    <desc>Created with Sketch.</desc>
    <defs>
        <path d="M12.1039893,3.091547 C12.4677214,3.28971827 12.6019349,3.74523093 12.4037637,4.108963 L9.78546603,10.7501422 L15.4951685,10.7501422 C16.3210126,10.7501422 16.7505358,11.6664585 16.4105074,12.3462983 L13.446,19.335 L14.6367878,19.8408135 C14.763883,19.8947622 14.8231799,20.0415273 14.7692312,20.1686225 C14.7456031,20.2242868 14.7025998,20.2695002 14.6481885,20.2958859 L11.8171166,21.6687612 C11.6928823,21.7290064 11.5433321,21.6771328 11.483087,21.5528985 C11.4781729,21.5427649 11.4739492,21.5323108 11.4704447,21.5216077 L10.4913808,18.5314258 C10.4484171,18.4002093 10.5199601,18.2590083 10.6511766,18.2160446 C10.7086459,18.1972276 10.7709878,18.1998788 10.8266521,18.2235068 L12.064,18.748 L14.7697679,12.2501422 L8.99516847,12.2501422 C8.12016664,12.2501422 7.79891626,11.3155956 8.12434807,10.664732 L11.0865733,3.39132136 C11.2847446,3.02758928 11.7402572,2.89337573 12.1039893,3.091547 Z" id="path-1"></path>
    </defs>
    <g id="ic/camera/public/flash_on" stroke="none" stroke-width="1" fill="none" fill-rule="evenodd">
        <mask id="mask-2" fill="white">
            <use xlink:href="#path-1"></use>
        </mask>
        <use id="flash_on" fill="#006cde" xlink:href="#path-1"></use>
        <g id="ic/bg/white" mask="url(#mask-2)" fill="#FFFFFF" fill-rule="nonzero">
<!--            <rect id="Rectangle-13-Copy" x="0" y="0" width="24" height="24"></rect>-->
        </g>
    </g>
</svg>