<?xml version="1.0" encoding="UTF-8"?>
<svg width="24px" height="24px" viewBox="0 0 24 24" version="1.1" xmlns="http://www.w3.org/2000/svg" xmlns:xlink="http://www.w3.org/1999/xlink">
    <title>ic_camera_setting_location tag</title>
    <defs>
        <path d="M13.997925,10.000025 C13.997925,11.104525 13.102425,12.000025 11.997925,12.000025 C10.893425,12.000025 9.997925,11.104525 9.997925,10.000025 C9.997925,8.895525 10.893425,8.000025 11.997925,8.000025 C13.102425,8.000025 13.997925,8.895525 13.997925,10.000025 M12,2.000025 L11.887,2.000025 C7.46875,2.000025 4,5.511775 4,9.843775 C4,14.584525 9.621,20.096025 11.4385,21.754275 C11.46825,21.781525 11.4955,21.806525 11.52325,21.831525 C11.65425,21.935525 11.81825,22.000025 11.9995,22.000025 C12.183,22.000025 12.3495,21.934025 12.48075,21.827525 C12.50625,21.804525 12.532,21.781525 12.55925,21.756275 C14.3745,20.100525 20,14.586525 20,9.843775 C20,5.511775 16.41825,2.000025 12,2.000025 M18.5,9.843775 C18.5,12.985275 15.228,17.181025 12,20.229025 C8.7775,17.187275 5.5,12.987025 5.5,9.843775 C5.5,6.286525 8.3055,3.500025 11.887,3.500025 L12,3.500025 C15.584,3.500025 18.5,6.345775 18.5,9.843775 Z" id="path-1"></path>
    </defs>
    <g id="ic_camera_setting_location-tag" stroke="none" stroke-width="1" fill="none" fill-rule="evenodd">
        <mask id="mask-2" fill="white">
            <use xlink:href="#path-1"></use>
        </mask>
        <use id="path-1" fill="#000000" xlink:href="#path-1"></use>
    </g>
</svg>