<?xml version="1.0" encoding="UTF-8"?>
<svg width="24px" height="24px" viewBox="0 0 24 24" version="1.1" xmlns="http://www.w3.org/2000/svg" xmlns:xlink="http://www.w3.org/1999/xlink">
    <title>ic_camera_rersolution</title>
    <defs>
        <path d="M12.00005,2.000025 C17.5227636,2.000025 22.00005,6.47731144 22.00005,12.000025 C22.00005,17.5229054 17.5228468,22.000025 12.00005,22.000025 C6.47708644,22.000025 2.00005,17.5229886 2.00005,12.000025 C2.00005,9.31240957 3.06617044,6.79174439 4.92896991,4.92894491 C5.22186313,4.6360517 5.69673687,4.6360517 5.98963009,4.92894491 C6.2825233,5.22183813 6.2825233,5.69671187 5.98963009,5.98960509 C4.40535037,7.5738848 3.50005,9.71431757 3.50005,12.000025 C3.50005,16.6945614 7.30551356,20.500025 12.00005,20.500025 C16.6944259,20.500025 20.50005,16.694472 20.50005,12.000025 C20.50005,7.55846577 17.0930837,3.91237836 12.75005,3.53266173 L12.75005,5.254275 C12.75005,5.66848856 12.4142636,6.004275 12.00005,6.004275 C11.5858364,6.004275 11.25005,5.66848856 11.25005,5.254275 L11.25005,2.750025 C11.25005,2.33581144 11.5858364,2.000025 12.00005,2.000025 Z M8.098225,7.6189 C8.215725,7.6189 8.322475,7.6614 8.407725,7.72915 L8.407725,7.72915 L8.409475,7.72765 L12.658725,11.2479 C12.865225,11.4339 12.999975,11.6999 12.999975,12.00015 C12.999975,12.5524 12.552225,13.00015 11.999975,13.00015 C11.650225,13.00015 11.343225,12.81965 11.164475,12.5474 L11.164475,12.5474 L7.705475,8.4284 C7.639975,8.34165 7.598225,8.23565 7.598225,8.11915 C7.598225,7.8429 7.821975,7.6189 8.098225,7.6189 Z" id="path-1"></path>
    </defs>
    <g id="ic_camera_rersolution" stroke="none" stroke-width="1" fill="none" fill-rule="evenodd">
        <mask id="mask-2" fill="white">
            <use xlink:href="#path-1"></use>
        </mask>
        <use id="timer" fill="#000000" fill-rule="nonzero" xlink:href="#path-1"></use>
    </g>
</svg>