<?xml version="1.0" encoding="UTF-8"?>
<svg width="24px" height="24px" viewBox="0 0 24 24" version="1.1" xmlns="http://www.w3.org/2000/svg" xmlns:xlink="http://www.w3.org/1999/xlink">
    <title>ic_camera_mirrow_reflection</title>
    <defs>
        <path d="M3.5,8 L3.5,16 L7,16 L7,8 L3.5,8 Z M3.5,6.5 L7,6.5 C7.82842712,6.5 8.5,7.17157288 8.5,8 L8.5,16 C8.5,16.8284271 7.82842712,17.5 7,17.5 L3.5,17.5 C2.67157288,17.5 2,16.8284271 2,16 L2,8 C2,7.17157288 2.67157288,6.5 3.5,6.5 Z M17,8 L17,16 L20.5,16 L20.5,8 L17,8 Z M12,4 C12.4142136,4 12.75,4.33578644 12.75,4.75 L12.75,19.25 C12.75,19.6642136 12.4142136,20 12,20 C11.5857864,20 11.25,19.6642136 11.25,19.25 L11.25,4.75 C11.25,4.33578644 11.5857864,4 12,4 Z M20.5,6.5 C21.3284271,6.5 22,7.17157288 22,8 L22,16 C22,16.8284271 21.3284271,17.5 20.5,17.5 L17,17.5 C16.1715729,17.5 15.5,16.8284271 15.5,16 L15.5,8 C15.5,7.17157288 16.1715729,6.5 17,6.5 L20.5,6.5 Z" id="path-1"></path>
    </defs>
    <g id="ic_camera_mirrow_reflection" stroke="none" stroke-width="1" fill="none" fill-rule="evenodd">
        <mask id="mask-2" fill="white">
            <use xlink:href="#path-1"></use>
        </mask>
        <use id="mirrow_reflection" fill="#000000" fill-rule="nonzero" xlink:href="#path-1"></use>
    </g>
</svg>