<?xml version="1.0" encoding="UTF-8"?>
<svg viewBox="0 0 20 20" version="1.1" xmlns="http://www.w3.org/2000/svg" xmlns:xlink="http://www.w3.org/1999/xlink">
    <title>ic_video_recording</title>
    <g id="ic_video_recording" stroke="none" stroke-width="1" fill="none" fill-rule="evenodd">
        <g id="Combined-Shape" fill="#000000" transform="translate(3.000000, 2.000000)">
            <path d="M4.54166667,0.5 C4.79479718,0.5 5,0.705202823 5,0.958333333 L5,15.0416667 C5,15.2947972 4.79479718,15.5 4.54166667,15.5 L0.458333333,15.5 C0.205202823,15.5 2.53044152e-16,15.2947972 0,15.0416667 L0,0.958333333 C2.45116043e-17,0.705202823 0.205202823,0.5 0.458333333,0.5 L4.54166667,0.5 Z M13.5416667,0.5 C13.7947972,0.5 14,0.705202823 14,0.958333333 L14,15.0416667 C14,15.2947972 13.7947972,15.5 13.5416667,15.5 L9.45833333,15.5 C9.20520282,15.5 9,15.2947972 9,15.0416667 L9,0.958333333 C9,0.705202823 9.20520282,0.5 9.45833333,0.5 L13.5416667,0.5 Z"></path>
        </g>
    </g>
</svg>