<?xml version="1.0" encoding="UTF-8"?>
<svg viewBox="0 0 24 24" version="1.1" xmlns="http://www.w3.org/2000/svg" xmlns:xlink="http://www.w3.org/1999/xlink">
    <!-- Generator: Sketch 63.1 (92452) - https://sketch.com -->
    <title>ic/camera/public/flash_auto</title>
    <desc>Created with Sketch.</desc>
    <defs>
        <path d="M7.10398929,3.091547 C7.46772137,3.28971827 7.60193492,3.74523093 7.40376365,4.108963 L4.78546603,10.7501422 L10.4951685,10.7501422 C11.3210126,10.7501422 11.7505358,11.6664585 11.4105074,12.3462983 L8.446,19.335 L9.63678779,19.8408135 C9.76388299,19.8947622 9.82317994,20.0415273 9.76923122,20.1686225 C9.74560314,20.2242868 9.70259978,20.2695002 9.64818847,20.2958859 L6.81711664,21.6687612 C6.69288228,21.7290064 6.5433321,21.6771328 6.48308697,21.5528985 C6.47817287,21.5427649 6.47394916,21.5323108 6.47044468,21.5216077 L5.49138079,18.5314258 C5.44841706,18.4002093 5.51996008,18.2590083 5.65117659,18.2160446 C5.70864589,18.1972276 5.77098779,18.1998788 5.82665207,18.2235068 L7.064,18.748 L9.76976789,12.2501422 L3.99516847,12.2501422 C3.12016664,12.2501422 2.79891626,11.3155956 3.12434807,10.664732 L6.08657328,3.39132136 C6.28474455,3.02758928 6.74025722,2.89337573 7.10398929,3.091547 Z M17.4817165,11.0083008 L20.9578857,21.1240903 L19.222464,21.1240903 L18.4837544,18.9060741 L14.9792731,18.9060741 L14.3788178,21.1240903 L12.8065094,21.1240903 L15.9303912,11.0083008 L17.4817165,11.0083008 Z M16.7858212,13.0526316 L15.4288103,17.4736842 L18.1571089,17.4736842 L16.7858212,13.0526316 Z" id="path-1"></path>
    </defs>
    <g id="ic/camera/public/flash_auto" stroke="none" stroke-width="1" fill="none" fill-rule="evenodd">
        <mask id="mask-2" fill="white">
            <use xlink:href="#path-1"></use>
        </mask>
        <use id="flash_auto" fill="#006cde" xlink:href="#path-1"></use>
        <g id="ic/bg/white" mask="url(#mask-2)" fill="#FFFFFF" fill-rule="nonzero">
<!--            <rect id="Rectangle-13-Copy" x="0" y="0" width="24" height="24"></rect>-->
        </g>
    </g>
</svg>