<?xml version="1.0" encoding="UTF-8"?>
<svg viewBox="0 0 24 24" version="1.1" xmlns="http://www.w3.org/2000/svg" xmlns:xlink="http://www.w3.org/1999/xlink">
    <!-- Generator: Sketch 63.1 (92452) - https://sketch.com -->
    <title>ic/camera/setting/sd/card</title>
    <desc>Created with Sketch.</desc>
    <g id="ic/camera/setting/sd/card" stroke="none" stroke-width="1" fill="none" fill-rule="evenodd">
        <path d="M15.1078844,2.75 L18.2941176,5.77372412 L18.2941176,7.80169606 L20,9.48242686 L20,12.3459344 L18.7205882,12.3431837 L18.7205882,12.6092603 L20,13.8894101 L20,19.75 C20,20.5784271 19.3284271,21.25 18.5,21.25 L5.5,21.25 C4.67157288,21.25 4,20.5784271 4,19.75 L4,4.25 C4,3.42157288 4.67157288,2.75 5.5,2.75 L15.1078844,2.75 Z M14.5094305,4.25 L5.5,4.25 L5.5,19.75 L18.5,19.75 L18.5,14.5104771 L17.2205882,13.2303273 L17.2205882,10.8399553 L18.5,10.842706 L18.5,10.1102829 L16.7941176,8.4295521 L16.7941176,6.41816007 L14.5094305,4.25 Z M8.33264159,5.99968273 C8.42526659,5.99968273 8.50045409,6.08647028 8.50045409,6.19386986 L8.50045409,6.19386986 L8.50045409,9.27699728 C8.50045409,9.38439686 8.42526659,9.4711844 8.33264159,9.4711844 L8.33264159,9.4711844 L7.16826659,9.4711844 C7.07545409,9.4711844 7.00045409,9.38439686 7.00045409,9.27699728 L7.00045409,9.27699728 L7.00045409,6.19386986 C7.00045409,6.08647028 7.07545409,5.99968273 7.16826659,5.99968273 L7.16826659,5.99968273 Z M11.2616866,6.00004986 C11.3543116,6.00004986 11.4294991,6.08683741 11.4294991,6.19423699 L11.4294991,6.19423699 L11.4294991,9.27736441 C11.4294991,9.38476399 11.3543116,9.47155153 11.2616866,9.47155153 L11.2616866,9.47155153 L10.0973116,9.47155153 C10.0044991,9.47155153 9.92949912,9.38476399 9.92949912,9.27736441 L9.92949912,9.27736441 L9.92949912,6.19423699 C9.92949912,6.08683741 10.0044991,6.00004986 10.0973116,6.00004986 L10.0973116,6.00004986 Z M14.1907316,6.00004986 C14.2833566,6.00004986 14.3585441,6.08683741 14.3585441,6.19423699 L14.3585441,6.19423699 L14.3585441,9.27736441 C14.3585441,9.38476399 14.2833566,9.47155153 14.1907316,9.47155153 L14.1907316,9.47155153 L13.0263566,9.47155153 C12.9335441,9.47155153 12.8585441,9.38476399 12.8585441,9.27736441 L12.8585441,9.27736441 L12.8585441,6.19423699 C12.8585441,6.08683741 12.9335441,6.00004986 13.0263566,6.00004986 L13.0263566,6.00004986 Z" id="Combined-Shape" fill="#FFFFFF" fill-rule="nonzero"></path>
    </g>
</svg>