<?xml version="1.0" encoding="UTF-8"?>
<svg width="133.63px" height="133.63px" viewBox="0 0 76 76" version="1.1" xmlns="http://www.w3.org/2000/svg" xmlns:xlink="http://www.w3.org/1999/xlink">
    <!-- Generator: Sketch 63.1 (92452) - https://sketch.com -->
    <title>ic/camera/shutter/take_photo_loading</title>
    <desc>Created with Sketch.</desc>
    <g id="ic/camera/shutter/take_photo_loading" stroke="none" stroke-width="1" fill="none" fill-rule="evenodd">
        <path d="M0,38 C0,37.7238576 0.223857625,37.5 0.5,37.5 C0.776142375,37.5 1,37.7238576 1,38 C1,58.4345357 17.5654643,75 38,75 C58.4345357,75 75,58.4345357 75,38 C75,17.5654643 58.4345357,1 38,1 C37.7238576,1 37.5,0.776142375 37.5,0.5 C37.5,0.223857625 37.7238576,0 38,0 C58.9868205,0 76,17.0131795 76,38 C76,58.9868205 58.9868205,76 38,76 C17.0131795,76 0,58.9868205 0,38 Z" id="Combined-Shape" fill="#FFFFFF"></path>
        <circle id="Path" fill-opacity="0.5" fill="#FFFFFF" cx="38" cy="38" r="27"></circle>
    </g>
</svg>