<?xml version="1.0" encoding="UTF-8"?>
<svg width="32px" height="32px" viewBox="0 0 24 24" version="1.1" xmlns="http://www.w3.org/2000/svg" xmlns:xlink="http://www.w3.org/1999/xlink">
    <title>ic_camera_mode_photo</title>
    <defs>
        <path d="M9.22222222,3.11111111 L14.7777778,3.11111111 C15.590261,3.11111111 16.0906306,3.43843791 16.4444444,3.94444444 L17.5555556,5.33333333 L20.3333333,5.33333333 C21.2937472,5.38275163 22,6.09681046 22,7 L22,19.2222222 C22,20.1748301 21.2937472,20.8888889 20.3333333,20.8888889 L3.66666667,20.8888889 C2.70645,20.8888889 2,20.1748301 2,19.2222222 L2,7 C2,6.09681046 2.70625278,5.38275163 3.66666667,5.33333333 L6.44444444,5.33333333 C6.8034809,4.89042452 7.14191593,4.51290241 7.59972154,3.95319171 C8.04277836,3.41151281 8.38571971,3.11111111 9.22222222,3.11111111 Z M12,15.3333333 C13.5341243,15.3333333 14.7777778,14.0896799 14.7777778,12.5555556 C14.7777778,11.0214313 13.5341243,9.77777778 12,9.77777778 C10.4658757,9.77777778 9.22222222,11.0214313 9.22222222,12.5555556 C9.22222222,14.0896799 10.4658757,15.3333333 12,15.3333333 Z M12,17 C9.54540111,17 7.55555556,15.0101544 7.55555556,12.5555556 C7.55555556,10.1009567 9.54540111,8.11111111 12,8.11111111 C14.4545989,8.11111111 16.4444444,10.1009567 16.4444444,12.5555556 C16.4444444,15.0101544 14.4545989,17 12,17 Z" id="path-1"></path>
    </defs>
    <g id="ic_camera_mode_photo" stroke="none" stroke-width="1" fill="none" fill-rule="evenodd">
        <mask id="mask-2" fill="white">
            <use xlink:href="#path-1"></use>
        </mask>
        <use id="Path" fill="#000000" xlink:href="#path-1"></use>
    </g>
</svg>