<?xml version="1.0" encoding="UTF-8"?>
<svg viewBox="0 0 24 24" version="1.1" xmlns="http://www.w3.org/2000/svg" xmlns:xlink="http://www.w3.org/1999/xlink">
    <!-- Generator: Sketch 63.1 (92452) - https://sketch.com -->
    <title>ic/camera/public/flash_off</title>
    <desc>Created with Sketch.</desc>
    <defs>
        <path d="M13.2087918,19.3310489 L14.4100571,19.8409557 C14.5371523,19.8949044 14.5964492,20.0416695 14.5425005,20.1687647 C14.5188724,20.224429 14.4758691,20.2696424 14.4214577,20.2960281 L11.5903859,21.6689034 C11.4661515,21.7291486 11.3166014,21.677275 11.2563562,21.5530407 C11.2514421,21.5429071 11.2472184,21.532453 11.243714,21.5217499 L10.2646501,18.5315679 C10.2216863,18.4003514 10.2932294,18.2591505 10.4244459,18.2161867 C10.4819152,18.1973698 10.5442571,18.2000209 10.5999213,18.223649 L11.8276348,18.7447825 L13.2656556,15.3031887 L10.2126091,12.2501422 L8.76672812,12.2501422 C7.89172629,12.2501422 7.57047591,11.3155956 7.89590773,10.664732 L8.10754569,10.1450788 L3.21966991,5.2188888 C2.9267767,4.92599558 2.9267767,4.45112184 3.21966991,4.15822863 C3.51256313,3.86533541 3.98743687,3.86533541 4.28033009,4.15822863 L20.2159701,20.120016 C20.5088633,20.4129093 20.5088633,20.887783 20.2159701,21.1806762 C19.9230768,21.4735694 19.4482031,21.4735694 19.1553099,21.1806762 L14.428412,16.465945 L13.2087918,19.3310489 L13.2087918,19.3310489 Z M14.5413275,12.2501422 L13.7418885,12.2501422 L12.2418885,10.7501422 L15.2667281,10.7501422 C16.0925722,10.7501422 16.5220955,11.6664585 16.1820671,12.3462983 L15.4805599,13.9897104 L14.3037483,12.8128987 L14.5413275,12.2501422 Z M10.8581329,3.39132136 C11.0563042,3.02758928 11.5118169,2.89337573 11.8755489,3.091547 C12.239281,3.28971827 12.3734946,3.74523093 12.1753233,4.108963 L10.3192135,8.81951384 L9.13253225,7.6328326 L10.8581329,3.39132136 Z" id="path-1"></path>
    </defs>
    <g id="ic/camera/public/flash_off" stroke="none" stroke-width="1" fill="none" fill-rule="evenodd">
        <mask id="mask-2" fill="white">
            <use xlink:href="#path-1"></use>
        </mask>
        <use id="flash_off" fill="#006cde" xlink:href="#path-1"></use>
        <g id="ic/bg/white" mask="url(#mask-2)" fill="#FFFFFF" fill-rule="nonzero">
<!--          <rect id="Rectangle-13-Copy" x="0" y="0" width="24" height="24"></rect>-->
        </g>
    </g>
</svg>